<svg width="512" height="512" viewBox="0 0 512 512" xmlns="http://www.w3.org/2000/svg">
  <defs>
    <linearGradient id="bodyGradient" x1="0%" y1="0%" x2="100%" y2="0%">
        <stop offset="0%" style="stop-color:#f5f5f5" />
        <stop offset="50%" style="stop-color:#ffffff" />
        <stop offset="100%" style="stop-color:#e0e0e0" />
    </linearGradient>
    <filter id="shadow" x="-20%" y="-20%" width="140%" height="140%">
        <feDropShadow dx="1" dy="1" stdDeviation="1" flood-opacity="0.3"/>
    </filter>
  </defs>
  
  <!-- Background Circle -->
  <circle cx="256" cy="256" r="256" fill="#1a237e"/>
  
  <!-- Rocket Group -->
  <g transform="translate(106, 106) scale(3)">
    <!-- Flames -->
    <g class="flames" transform="translate(0, -2)">
        <path d="M40 82 Q50 110 60 82" fill="#ff9800" opacity="0.9"/>
        <path d="M45 82 Q50 100 55 82" fill="#ffeb3b" opacity="0.9"/>
    </g>

    <!-- Fins -->
    <path d="M32 75 L15 95 L35 85 Z" fill="#d32f2f" stroke="#b71c1c" stroke-width="1" stroke-linejoin="round"/>
    <path d="M68 75 L85 95 L65 85 Z" fill="#d32f2f" stroke="#b71c1c" stroke-width="1" stroke-linejoin="round"/>
    <path d="M50 80 L50 92" stroke="#b71c1c" stroke-width="4" stroke-linecap="round"/>

    <!-- Body -->
    <path d="M30 80 Q25 40 50 5 Q75 40 70 80 Z" fill="url(#bodyGradient)" stroke="#9e9e9e" stroke-width="1" filter="url(#shadow)"/>

    <!-- Nose Cone -->
    <path d="M36.5 35 Q50 5 63.5 35 Q50 40 36.5 35 Z" fill="#d32f2f" />

    <!-- Window -->
    <circle cx="50" cy="50" r="12" fill="#29b6f6" stroke="#37474f" stroke-width="2.5"/>
    <ellipse cx="54" cy="46" rx="3" ry="2" fill="white" opacity="0.7" transform="rotate(-45 54 46)"/>
    
    <!-- Rivets -->
    <circle cx="50" cy="25" r="1" fill="#bdbdbd"/>
    <circle cx="50" cy="70" r="1" fill="#bdbdbd"/>
  </g>
</svg>